<?xml version="1.0" standalone="no"?>
<!DOCTYPE svg PUBLIC "-//W3C//DTD SVG 20010904//EN"
 "http://www.w3.org/TR/2001/REC-SVG-20010904/DTD/svg10.dtd">
<svg version="1.0" xmlns="http://www.w3.org/2000/svg"
 width="93.000000pt" height="90.000000pt" viewBox="0 0 93.000000 90.000000"
 preserveAspectRatio="xMidYMid meet">

<g transform="translate(0.000000,90.000000) scale(0.100000,-0.100000)"
fill="#000000" stroke="none">
<path d="M337 806 c-71 -30 -119 -66 -159 -120 -58 -78 -72 -122 -72 -226 -1
-83 2 -102 26 -152 37 -80 105 -149 181 -184 55 -25 73 -29 162 -29 83 0 108
4 149 22 47 22 48 24 42 57 -5 24 -2 39 9 50 21 20 45 21 45 0 0 -14 1 -14 16
0 8 9 20 16 25 16 6 0 24 30 42 67 28 61 32 78 32 158 0 78 -4 97 -28 147 -39
80 -111 142 -194 168 -90 28 -213 25 -213 -5 0 -13 -41 -35 -65 -35 -8 0 -15
9 -15 20 0 24 27 36 120 55 l65 13 -55 1 c-36 0 -75 -8 -113 -23z m299 -66
c35 -17 64 -35 64 -41 0 -13 1 -13 -70 23 -35 17 -91 37 -124 44 l-61 13 64
-4 c45 -2 81 -12 127 -35z m-338 -5 c-2 -19 0 -35 4 -35 4 0 8 -7 8 -15 0 -8
-22 -26 -49 -40 -27 -13 -52 -29 -56 -35 -10 -16 -25 -1 -25 24 0 15 20 44 55
80 31 31 58 56 61 56 4 0 4 -16 2 -35z m97 -30 c-36 -17 -55 -19 -55 -6 0 10
28 18 65 19 15 0 12 -3 -10 -13z m288 -83 c16 -29 28 -54 26 -56 -2 -2 -30 1
-62 7 -49 9 -61 15 -73 39 -22 42 -4 70 43 66 32 -3 39 -9 66 -56z m-205 23
c17 -14 35 -25 41 -25 5 0 15 -9 20 -19 10 -17 4 -21 -67 -37 -42 -10 -83 -19
-91 -19 -9 0 -19 19 -27 48 l-12 49 31 13 c47 21 72 18 105 -10z m278 -12 c31
-33 54 -111 54 -182 0 -58 -14 -100 -24 -71 -10 31 -13 121 -4 126 5 3 3 13
-5 22 -8 10 -28 43 -45 75 -33 63 -21 79 24 30z m-432 -49 c4 -19 9 -41 12
-48 3 -8 -17 -26 -51 -45 -32 -18 -58 -31 -59 -29 0 2 -7 13 -13 25 -7 13 -13
35 -13 50 0 23 9 34 52 60 29 17 56 29 59 27 4 -2 10 -20 13 -40z m-173 -27
c-8 -8 -11 -7 -11 4 0 20 13 34 18 19 3 -7 -1 -17 -7 -23z m419 -24 c0 -5 7
-30 15 -56 l14 -48 -32 2 c-17 2 -56 -5 -84 -15 -29 -10 -57 -15 -62 -12 -5 3
-16 26 -24 50 l-15 44 26 11 c69 27 162 40 162 24z m143 -12 c19 -7 27 -20 32
-50 8 -50 3 -59 -32 -54 -68 10 -71 12 -87 60 -9 25 -16 51 -16 56 0 10 63 3
103 -12z m-553 -99 c-4 -23 -4 -44 0 -47 4 -3 20 -30 35 -60 32 -66 52 -87
123 -127 34 -20 50 -34 44 -40 -6 -6 -22 -4 -45 7 -103 49 -173 157 -184 284
-5 57 -3 75 8 82 19 12 30 -42 19 -99z m201 31 c26 -69 24 -77 -28 -111 l-48
-31 -17 32 c-27 51 -23 72 24 106 23 17 46 31 50 31 5 0 13 -12 19 -27z m344
-84 c4 -6 -1 -16 -11 -24 -16 -12 -20 -11 -26 3 -4 9 -7 20 -7 25 -1 11 37 8
44 -4z m82 -31 c-3 -8 -6 -5 -6 6 -1 11 2 17 5 13 3 -3 4 -12 1 -19z m-170
-30 c-3 -7 -5 -2 -5 12 0 14 2 19 5 13 2 -7 2 -19 0 -25z m-197 2 c8 -15 8
-30 -1 -55 -16 -43 -42 -46 -81 -8 l-28 27 43 28 c50 33 53 34 67 8z m331 -53
c-5 -5 -17 -7 -26 -4 -13 6 -13 11 7 41 l23 35 3 -31 c2 -17 -1 -35 -7 -41z
m-111 -82 c0 -21 -47 -42 -61 -28 -8 8 -3 15 18 26 37 20 43 20 43 2z m-102
-37 c-3 -8 -21 -13 -43 -13 -22 0 -40 5 -42 13 -3 8 9 12 42 12 33 0 45 -4 43
-12z"/>
</g>
</svg>
